<svg width="24" height="24" viewBox="0 0 24 24" fill="none" xmlns="http://www.w3.org/2000/svg">
<path d="M12.5854 15.1418C13.3587 15.6865 14.1695 16.1446 15.0052 16.4913C15.5241 16.6794 16.3384 16.1465 16.9371 15.7547C17.0867 15.6568 17.2229 15.5677 17.3377 15.5008L17.3753 15.4797C17.9393 15.163 18.5655 14.8113 19.3708 14.9808C20.0942 15.1294 22.5764 17.0855 23.2624 17.7788C23.7114 18.2245 23.9609 18.695 23.9983 19.1778C24.0731 20.973 21.6658 22.991 21.0921 23.3376C19.8697 24.229 18.2357 24.2166 16.265 23.3252C14.157 22.471 11.6374 20.6758 9.20519 18.4969C8.33451 17.7169 6.66249 16.0746 6.18666 15.5262C3.72946 12.8644 1.65892 10.0045 0.686022 7.68936C0.224517 6.71131 0 5.80754 0 5.00281C0 4.21047 0.224517 3.50478 0.661076 2.89814C0.923011 2.44007 3.03097 -0.0607732 4.88946 0.00112969C5.35097 0.0506502 5.82494 0.285878 6.28645 0.731574C6.98494 1.4125 8.99311 3.8762 9.14279 4.60664C9.31356 5.39362 8.95946 6.01483 8.64045 6.57449L8.61892 6.61227C8.54702 6.73649 8.44954 6.88386 8.34297 7.04496C7.95037 7.63845 7.43441 8.41842 7.61982 8.91502C8.08258 10.054 8.74365 11.1683 9.54068 12.1958C10.4252 13.2534 11.8121 14.597 12.5854 15.1418Z" fill="#212135"/>
</svg>
