<svg width="26" height="21" viewBox="0 0 26 21" fill="none" xmlns="http://www.w3.org/2000/svg">
<path fill-rule="evenodd" clip-rule="evenodd" d="M19.8871 3.53526C16.9107 1.92689 14.9692 0.954103 12.9599 0.954102C10.9507 0.9541 9.00915 1.92688 6.03276 3.53526L5.9771 3.56534C4.5061 4.36022 3.33302 4.99412 2.53288 5.53459C2.12742 5.80847 1.75901 6.09639 1.48461 6.41148C1.20694 6.73033 0.954102 7.16043 0.954102 7.69626V15.3525C0.954102 15.9048 1.40182 16.3525 1.9541 16.3525C2.50639 16.3525 2.9541 15.9048 2.9541 15.3525V10.1303C3.48272 10.4595 4.13045 10.8231 4.88306 11.2341C4.82501 11.9973 4.82509 12.9779 4.82519 14.2361L4.8252 14.3954C4.8252 19.1805 6.25517 20.1376 12.927 20.1376C19.1806 20.1376 21.0947 19.1806 21.0947 14.3954C21.0947 13.0622 21.0946 12.0322 21.0303 11.2376C21.9996 10.7084 22.7952 10.2576 23.3869 9.85792C23.7924 9.58405 24.1608 9.29613 24.4352 8.98103C24.7129 8.66218 24.9657 8.23208 24.9657 7.69626C24.9657 7.16043 24.7129 6.73033 24.4352 6.41148C24.1608 6.09638 23.7924 5.80847 23.3869 5.53459C22.5868 4.99411 21.4137 4.36022 19.9427 3.56534L19.9427 3.56532L19.8871 3.53526ZM19.0797 12.2908C16.5476 13.6388 14.7816 14.4384 12.9599 14.4384C11.1376 14.4384 9.37095 13.6382 6.8374 12.2893C6.82548 12.8433 6.8252 13.5293 6.8252 14.3954C6.8252 16.7531 7.22327 17.2131 7.52419 17.4246C7.76306 17.5925 8.22373 17.7943 9.14968 17.9364C10.0686 18.0774 11.2872 18.1376 12.927 18.1376C14.4567 18.1376 15.628 18.0778 16.5344 17.937C17.4455 17.7954 17.9542 17.5911 18.249 17.3952C18.6392 17.1359 19.0947 16.6092 19.0947 14.3954C19.0947 13.5291 19.0933 12.8434 19.0797 12.2908ZM3.65236 7.19193C3.3259 7.41244 3.12964 7.57728 3.01873 7.69626C3.12964 7.81525 3.3259 7.98008 3.65236 8.2006C4.36017 8.6787 5.44461 9.2661 6.98358 10.0977C10.0793 11.7706 11.5535 12.4384 12.9599 12.4384C14.3664 12.4384 15.8406 11.7706 18.9363 10.0977C20.4752 9.2661 21.5597 8.6787 22.2675 8.20059C22.5939 7.98008 22.7902 7.81524 22.9011 7.69626C22.7902 7.57727 22.5939 7.41244 22.2675 7.19192C21.5597 6.71381 20.4752 6.12641 18.9363 5.29479C15.8406 3.62194 14.3664 2.9541 12.9599 2.9541C11.5535 2.9541 10.0793 3.62193 6.98358 5.29479C5.44462 6.12642 4.36018 6.71382 3.65236 7.19193ZM22.985 7.80248L22.9839 7.80016C22.9847 7.80172 22.9851 7.80249 22.985 7.80248ZM22.9839 7.5922L22.985 7.59003C22.9851 7.59002 22.9847 7.59074 22.9839 7.5922ZM2.93597 7.59235C2.93511 7.5908 2.93475 7.59003 2.93479 7.59003L2.93597 7.59235Z" fill="#ffffff"/>
</svg>
