<svg width="22" height="25" viewBox="0 0 22 25" fill="none" xmlns="http://www.w3.org/2000/svg">
<path fill-rule="evenodd" clip-rule="evenodd" d="M0 12.9599C0 21.7104 0.835967 21.9642 7.19698 23.8949C7.64007 24.0294 8.11041 24.1721 8.6087 24.3263C12.8042 25.6246 14.9869 24.8963 16.1028 22.4306C17.2836 22.4201 18.2846 22.3465 19.0964 22.1077C20.0392 21.8304 20.7585 21.3205 21.2268 20.4651C21.6581 19.6773 21.8314 18.6721 21.9154 17.4973C22 16.3146 22 14.8225 22 12.9892V12.9173C22 11.0842 22 9.59274 21.9154 8.41131C21.8314 7.23781 21.6581 6.23377 21.2263 5.44717C20.7573 4.5928 20.0372 4.08525 19.095 3.80971C18.2837 3.57246 17.2832 3.49966 16.1028 3.48932C14.9869 1.02368 12.8041 0.295292 8.6087 1.59357C8.11031 1.74779 7.64033 1.89044 7.19716 2.02494C0.835983 3.95563 0 4.20936 0 12.9599ZM18.5517 20.2917C18.1082 20.4222 17.5156 20.4947 16.7011 20.5232C17.1136 18.5848 17.2174 16.0428 17.2174 12.9599C17.2174 9.87701 17.1136 7.33498 16.701 5.39659C17.5162 5.42482 18.1092 5.49671 18.5531 5.62653C19.0905 5.78368 19.3569 6.00831 19.5455 6.35191C19.7713 6.76327 19.9268 7.42298 20.0072 8.5453C20.0864 9.65195 20.087 11.0767 20.087 12.9533C20.087 14.8298 20.0864 16.2555 20.0071 17.3634C19.9268 18.487 19.7713 19.1489 19.545 19.5623C19.3556 19.9082 19.0885 20.1338 18.5517 20.2917ZM12.4348 13.9072C11.9065 13.9072 11.4783 13.4831 11.4783 12.96C11.4783 12.4368 11.9065 12.0128 12.4348 12.0128C12.9631 12.0128 13.3913 12.4368 13.3913 12.96C13.3913 13.4831 12.9631 13.9072 12.4348 13.9072Z" fill="#212135"/>
</svg>
