<svg width="24" height="24" viewBox="0 0 24 24" fill="none" xmlns="http://www.w3.org/2000/svg">
<path d="M8 14C6.89543 14 6 13.1046 6 12C6 10.8954 6.89543 10 8 10C9.10457 10 10 10.8954 10 12C10 13.1046 9.10457 14 8 14Z" fill="#212135"/>
<path fill-rule="evenodd" clip-rule="evenodd" d="M0 12C0 21.882 2.118 24 12 24C21.882 24 24 21.882 24 12C24 2.118 21.882 0 12 0C2.118 0 0 2.118 0 12ZM8 16C5.79086 16 4 14.2091 4 12C4 9.79086 5.79086 8 8 8C9.86658 8 11.4346 9.27853 11.8759 11.0076C11.9166 11.0026 11.958 11 12 11H19C19.5523 11 20 11.4477 20 12V15C20 15.5523 19.5523 16 19 16C18.4477 16 18 15.5523 18 15V13H16V14C16 14.5523 15.5523 15 15 15C14.4477 15 14 14.5523 14 14V13H12C11.958 13 11.9166 12.9974 11.8759 12.9924C11.4346 14.7215 9.86658 16 8 16Z" fill="#212135"/>
</svg>
