<svg width="24" height="24" viewBox="0 0 24 24" fill="none" xmlns="http://www.w3.org/2000/svg">
<path d="M10 15C10 16.1046 10.8954 17 12 17C13.1046 17 14 16.1046 14 15C14 13.8954 13.1046 13 12 13C10.8954 13 10 13.8954 10 15Z" fill="#212135"/>
<path fill-rule="evenodd" clip-rule="evenodd" d="M16.7894 1.75259C18.0484 2.8717 18.8829 4.49425 18.9886 6.55229C22.9689 7.49223 24 9.82865 24 15C24 22.4115 21.882 24 12 24C2.118 24 0 22.4115 0 15C0 9.82865 1.03115 7.49223 5.01138 6.55229C5.11707 4.49425 5.95164 2.8717 7.21064 1.75259C8.54117 0.569897 10.2869 0 12 0C13.7131 0 15.4588 0.569897 16.7894 1.75259ZM12 6C10.0655 6 8.42857 6.06087 7.04679 6.21439C7.20935 4.89357 7.78139 3.92116 8.53936 3.24741C9.45883 2.4301 10.7131 2 12 2C13.2869 2 14.5412 2.4301 15.4606 3.24741C16.2186 3.92116 16.7906 4.89357 16.9532 6.21439C15.5714 6.06087 13.9345 6 12 6ZM8 15C8 17.2091 9.79086 19 12 19C14.2091 19 16 17.2091 16 15C16 12.7909 14.2091 11 12 11C9.79086 11 8 12.7909 8 15Z" fill="#212135"/>
</svg>
