<svg width="24" height="22" viewBox="0 0 24 22" fill="none" xmlns="http://www.w3.org/2000/svg">
<path fill-rule="evenodd" clip-rule="evenodd" d="M0 11C0 20.0585 2.118 22 12 22C21.882 22 24 20.0585 24 11C24 8.5104 23.84 6.55838 23.4028 5.03651C22.2835 6.15874 20.8709 7.50823 19.3367 8.71025C17.1608 10.4151 14.5255 12 12 12C9.47452 12 6.83922 10.4151 4.66327 8.71025C3.12906 7.50823 1.71653 6.15874 0.597155 5.0365C0.159982 6.55838 0 8.5104 0 11ZM8 15C7.44772 15 7 15.4477 7 16C7 16.5523 7.44772 17 8 17H16C16.5523 17 17 16.5523 17 16C17 15.4477 16.5523 15 16 15H8Z" fill="#212135"/>
<path d="M18.1033 7.1359C19.8054 5.80233 21.3596 4.26731 22.5313 3.07311C20.9431 0.672599 17.8164 0 12 0C6.1836 0 3.0569 0.672599 1.46866 3.07311C2.64042 4.26731 4.1946 5.80233 5.89673 7.1359C8.04078 8.81572 10.2055 10 12 10C13.7945 10 15.9592 8.81572 18.1033 7.1359Z" fill="#212135"/>
</svg>
