<svg width="22" height="24" viewBox="0 0 22 24" fill="none" xmlns="http://www.w3.org/2000/svg">
<path d="M21.5022 5.72916C21.9934 6.00758 22.1674 6.63038 21.8123 7.06467C21.4759 7.4762 21.0896 7.84761 20.6612 8.17031C19.9603 8.69818 19.1605 9.08538 18.3072 9.30981C17.9552 9.4024 17.5969 9.46654 17.236 9.50199C16.9709 9.52803 16.8251 9.84845 16.9889 10.0548C17.0049 10.075 17.0209 10.0953 17.0369 10.1157C17.8763 11.1895 18.492 12.4151 18.8488 13.7225C19.2057 15.0298 19.2968 16.3934 19.1168 17.7354C18.9816 18.7434 18.6955 19.7244 18.2692 20.647C18.0349 21.1541 17.4017 21.3177 16.9104 21.0393L9.62565 16.9108C9.47826 16.8273 9.28981 16.8768 9.20472 17.0215L5.39684 23.4957C5.1132 23.9779 4.48501 24.1432 3.99374 23.8648C3.50247 23.5863 3.33415 22.9697 3.61778 22.4874L7.42567 16.0132C7.51076 15.8686 7.46026 15.6836 7.31288 15.6L0.50326 11.7408C0.0119869 11.4624 -0.160303 10.8422 0.16996 10.3895C0.770808 9.56582 1.49321 8.83208 2.31495 8.21312C3.40887 7.38916 4.6574 6.78477 5.98927 6.43445C7.32114 6.08414 8.71026 5.99477 10.0773 6.17144C10.0819 6.17202 10.0864 6.17261 10.0909 6.1732C10.355 6.20768 10.5631 5.9223 10.452 5.68458C10.295 5.3486 10.1667 4.99949 10.0688 4.64076C9.84012 3.80319 9.78179 2.92961 9.8971 2.06991C9.96758 1.54435 10.1021 1.03026 10.297 0.538469C10.5026 0.0194895 11.139 -0.144033 11.6303 0.13439L21.5022 5.72916Z" fill="#212135"/>
</svg>
