<svg width="22" height="24" viewBox="0 0 22 24" fill="none" xmlns="http://www.w3.org/2000/svg">
<path d="M9 12C9 13.1046 9.89543 14 11 14C12.1046 14 13 13.1046 13 12C13 10.8954 12.1046 10 11 10C9.89543 10 9 10.8954 9 12Z" fill="#212135"/>
<path fill-rule="evenodd" clip-rule="evenodd" d="M13.9724 2.42642C13.3582 -0.808807 8.64182 -0.808807 8.02763 2.42642C7.6873 4.21908 5.79928 5.29027 4.04931 4.68358C0.891109 3.58867 -1.46707 7.60252 1.07693 9.74284C2.48658 10.9288 2.48658 13.0712 1.07693 14.2572C-1.46707 16.3975 0.891109 20.4113 4.04931 19.3164C5.79928 18.7097 7.6873 19.7809 8.02763 21.5736C8.64182 24.8088 13.3582 24.8088 13.9724 21.5736C14.3127 19.7809 16.2007 18.7097 17.9507 19.3164C21.1089 20.4113 23.4671 16.3975 20.9231 14.2572C19.5134 13.0712 19.5134 10.9288 20.9231 9.74284C23.4671 7.60252 21.1089 3.58867 17.9507 4.68358C16.2007 5.29027 14.3127 4.21908 13.9724 2.42642ZM7 12C7 14.2091 8.79086 16 11 16C13.2091 16 15 14.2091 15 12C15 9.79086 13.2091 8 11 8C8.79086 8 7 9.79086 7 12Z" fill="#212135"/>
</svg>
