<svg width="24" height="24" viewBox="0 0 24 24" fill="none" xmlns="http://www.w3.org/2000/svg">
<path fill-rule="evenodd" clip-rule="evenodd" d="M0 12C0 21.882 2.118 24 12 24C21.882 24 24 21.882 24 12C24 2.118 21.882 0 12 0C2.118 0 0 2.118 0 12ZM7 7C7 6.44772 7.44772 6 8 6H16C16.5523 6 17 6.44772 17 7V8C17 8.55229 16.5523 9 16 9C15.4477 9 15 8.55228 15 8H13V16C13.5523 16 14 16.4477 14 17C14 17.5523 13.5523 18 13 18H11C10.4477 18 10 17.5523 10 17C10 16.4477 10.4477 16 11 16V8H9C9 8.55229 8.55229 9 8 9C7.44772 9 7 8.55228 7 8V7Z" fill="#212135"/>
</svg>
