<svg width="24" height="24" viewBox="0 0 24 24" fill="none" xmlns="http://www.w3.org/2000/svg">
<path d="M15.2727 1.10823C15.2727 0.496169 14.7766 0 14.1645 0H9.8355C9.22344 0 8.72727 0.496169 8.72727 1.10823C8.72727 1.72028 9.22344 2.21645 9.8355 2.21645H10.9091V4.45021L10.9092 4.46475C9.34537 4.56069 8.10535 4.87619 7.14419 5.4441C7.09822 5.36464 7.04165 5.28975 6.97451 5.22154L4.77423 2.98633L5.28897 2.46343C5.71499 2.03064 5.71499 1.32895 5.28897 0.89616C4.86294 0.463371 4.17221 0.463372 3.74619 0.896161L1.16843 3.51484C0.742402 3.94763 0.742401 4.64932 1.16843 5.08211C1.59445 5.51489 2.28518 5.51489 2.71121 5.0821L3.23145 4.5536L5.43173 6.78881C5.47981 6.83765 5.53125 6.88097 5.58531 6.91879C4.90088 7.94724 4.52931 9.32018 4.40733 11.0839C4.38713 11.0828 4.36679 11.0822 4.34632 11.0822H2.19913L2.18182 11.0823L2.18182 9.95665C2.18182 9.35416 1.6934 8.86574 1.09091 8.86574C0.488417 8.86574 0 9.35416 0 9.95665V14.4242C0 15.0267 0.488416 15.5151 1.09091 15.5151C1.6934 15.5151 2.18182 15.0267 2.18182 14.4242L2.18182 13.2985L2.19913 13.2987H4.34632C4.3582 13.2987 4.37003 13.2985 4.38181 13.2981C4.46516 15.0098 4.81242 16.3534 5.46523 17.3712C5.45387 17.3818 5.44267 17.3927 5.43166 17.4039L3.32866 19.5403L2.70846 18.9102C2.28243 18.4775 1.59171 18.4775 1.16568 18.9102C0.739653 19.343 0.739653 20.0447 1.16568 20.4775L3.95127 23.3073C4.37729 23.7401 5.06802 23.7401 5.49405 23.3073C5.92007 22.8745 5.92007 22.1728 5.49405 21.7401L4.87144 21.1076L6.97443 18.9712C6.99771 18.9475 7.01972 18.9231 7.04045 18.8979C8.02546 19.4907 9.3035 19.8185 10.9092 19.9164L10.9091 19.9308V21.7836H9.8355C9.22344 21.7836 8.72727 22.2797 8.72727 22.8918C8.72727 23.5038 9.22344 24 9.8355 24H14.1645C14.7766 24 15.2727 23.5038 15.2727 22.8918C15.2727 22.2797 14.7766 21.7836 14.1645 21.7836H13.0909V19.9308L13.0908 19.9164C14.6086 19.8235 15.8275 19.5245 16.7827 18.9896L18.8121 21.0512L18.2622 21.6099C17.8361 22.0427 17.8361 22.7444 18.2622 23.1772C18.6882 23.61 19.3789 23.61 19.805 23.1772L22.4253 20.5152C22.8514 20.0824 22.8514 19.3807 22.4253 18.9479C21.9993 18.5152 21.3086 18.5152 20.8826 18.9479L20.3549 19.484L18.4121 17.5104C19.121 16.4768 19.4998 15.0887 19.6053 13.2976C19.6213 13.2983 19.6375 13.2987 19.6537 13.2987H21.8009L21.8182 13.2985V14.4242C21.8182 15.0267 22.3066 15.5151 22.9091 15.5151C23.5116 15.5151 24 15.0267 24 14.4242V9.95665C24 9.35416 23.5116 8.86574 22.9091 8.86574C22.3066 8.86574 21.8182 9.35416 21.8182 9.95665V11.0823L21.8009 11.0822H19.6537C19.6375 11.0822 19.6213 11.0826 19.6053 11.0833C19.4961 9.22991 19.0943 7.80808 18.3369 6.76409L20.4537 4.61371L21.3114 5.48498C21.7374 5.91777 22.4281 5.91777 22.8541 5.48498C23.2802 5.05219 23.2802 4.3505 22.8541 3.91772L19.5998 0.611725C19.1738 0.178936 18.4831 0.178936 18.057 0.611725C17.631 1.04451 17.631 1.7462 18.057 2.17899L18.9109 3.04644L16.7718 5.21951C16.7365 5.25542 16.7041 5.29318 16.6746 5.33249C15.7361 4.83449 14.5519 4.55411 13.0908 4.4647L13.0909 4.45021V2.21645H14.1645C14.7766 2.21645 15.2727 1.72028 15.2727 1.10823Z" fill="#212135"/>
</svg>
